<?xml version="1.0" encoding="UTF-8" standalone="no"?>
<!DOCTYPE svg PUBLIC "-//W3C//DTD SVG 1.1//EN" "http://www.w3.org/Graphics/SVG/1.1/DTD/svg11.dtd">
<svg width="100%" height="100%" viewBox="0 0 160 160" version="1.1" xmlns="http://www.w3.org/2000/svg" xmlns:xlink="http://www.w3.org/1999/xlink" xml:space="preserve" xmlns:serif="http://www.serif.com/" style="fill-rule:evenodd;clip-rule:evenodd;stroke-linecap:round;stroke-linejoin:round;stroke-miterlimit:1.5;">
    <g transform="matrix(0.868469,0,0,1.35515,20.5,-7.6426)">
        <ellipse cx="70.725" cy="55.728" rx="33.104" ry="26.857" style="fill:rgb(43,144,217);stroke:rgb(43,144,217);stroke-width:1.17px;"/>
    </g>
    <g transform="matrix(0.868469,0,0,1.00512,-9.27963,3.39922)">
        <ellipse cx="70.725" cy="55.728" rx="33.104" ry="26.857" style="fill:rgb(43,144,217);stroke:rgb(43,144,217);stroke-width:1.42px;"/>
    </g>
    <g transform="matrix(0.868469,0,0,1.00512,49.5559,3.74023)">
        <ellipse cx="70.725" cy="55.728" rx="33.104" ry="26.857" style="fill:rgb(43,144,217);stroke:rgb(43,144,217);stroke-width:1.42px;"/>
    </g>
    <g transform="matrix(1,0,0,1,2.82675,16.0154)">
        <path d="M78.027,76.895L77.962,76.895" style="fill:none;stroke:rgb(43,144,217);stroke-width:1.33px;"/>
    </g>
    <g transform="matrix(0.796055,0,0,0.701023,15.9313,36.51)">
        <path d="M77.373,68.549C77.373,79.667 78.966,90.159 77.91,101.348C77.52,105.484 77.532,110.491 75.331,114.218C73.477,117.358 70.405,120.101 67.536,122.327C63.845,125.191 58.542,126.661 54.186,128.109C49.244,129.751 44.677,130.401 39.502,130.401" style="fill:none;stroke:rgb(43,144,217);stroke-width:24.89px;"/>
    </g>
    <g transform="matrix(1,0,0,1,10.2325,13.068)">
        <ellipse cx="66.101" cy="39.425" rx="4.065" ry="4.056" style="fill:rgb(255,242,255);stroke:rgb(43,144,217);stroke-width:1.33px;"/>
    </g>
    <g transform="matrix(1,0,0,1,23.0285,13.2292)">
        <ellipse cx="66.101" cy="39.425" rx="4.065" ry="4.056" style="fill:rgb(255,242,255);stroke:rgb(43,144,217);stroke-width:1.33px;"/>
    </g>
</svg>
