<?xml version="1.0" encoding="UTF-8" standalone="no"?>
<!DOCTYPE svg PUBLIC "-//W3C//DTD SVG 1.1//EN" "http://www.w3.org/Graphics/SVG/1.1/DTD/svg11.dtd">
<svg width="100%" height="100%" viewBox="0 0 160 160" version="1.1" xmlns="http://www.w3.org/2000/svg" xmlns:xlink="http://www.w3.org/1999/xlink" xml:space="preserve" xmlns:serif="http://www.serif.com/" style="fill-rule:evenodd;clip-rule:evenodd;stroke-linecap:round;stroke-linejoin:round;stroke-miterlimit:1.5;">
    <g transform="matrix(1.30914,0,0,1.30914,-29.6621,-13.3856)">
        <circle cx="82.917" cy="46.28" r="26.079" style="fill:rgb(29,161,242);"/>
    </g>
    <g transform="matrix(1.11468,0,0,1.31929,-12.9452,28.8705)">
        <circle cx="82.917" cy="46.28" r="26.079" style="fill:rgb(29,161,242);"/>
    </g>
    <g transform="matrix(-0.00335466,0.999994,-0.999994,-0.00335466,167.016,-63.875)">
        <path d="M109.836,32.535L124.783,64.253L94.888,64.253L109.836,32.535Z" style="fill:rgb(29,161,242);"/>
    </g>
    <path d="M106.2,50.835L107.944,52.481L104.456,52.481L106.2,50.835Z" style="fill:rgb(29,161,242);"/>
    <path d="M68.868,121.388C68.868,129.743 63.701,138.117 63.701,146.462C63.701,147.119 62.482,145.967 61.858,145.761C60.403,145.281 58.889,144.93 57.417,144.478C56.286,144.13 54.083,143.753 53.277,142.946" style="fill:none;stroke:rgb(29,161,242);stroke-width:4.86px;"/>
    <path d="M86.566,120.27C86.566,126.493 87.73,132.679 88.705,138.809C88.892,139.985 88.69,143.461 89.568,144.427C89.797,144.679 94.404,142.161 94.837,141.963C96.395,141.25 97.924,140.491 99.545,139.944C99.992,139.793 100.902,140.01 100.902,139.538" style="fill:none;stroke:rgb(29,161,242);stroke-width:4.86px;"/>
    <g transform="matrix(1,0,0,1,4.62946,-2.16071)">
        <circle cx="85.433" cy="35.926" r="3.247" style="fill:white;stroke:rgb(29,161,242);stroke-width:1.39px;"/>
    </g>
</svg>
